<?xml version="1.0" encoding="UTF-8" standalone="no" ?>
<!DOCTYPE svg PUBLIC "-//W3C//DTD SVG 1.1//EN" "http://www.w3.org/Graphics/SVG/1.1/DTD/svg11.dtd">
<svg xmlns="http://www.w3.org/2000/svg" xmlns:xlink="http://www.w3.org/1999/xlink" version="1.1" width="335" height="186" viewBox="0 0 335 186" xml:space="preserve">
<desc>Created with Fabric.js 3.6.3</desc>
<defs>
</defs>
<g transform="matrix(0.67 0 0 0.67 166.75 100.75)"  >
<g style=""   >
		<g transform="matrix(1 0 0 1 0 0)"  >
<rect style="stroke: none; stroke-width: 1; stroke-dasharray: none; stroke-linecap: butt; stroke-dashoffset: 0; stroke-linejoin: miter; stroke-miterlimit: 4; fill: rgb(216,219,221); fill-rule: nonzero; opacity: 1;"  x="-256" y="-256" rx="0" ry="0" width="512" height="512" />
</g>
		<g transform="matrix(-0.4 0 0 0.4 40.74 -51.62)"  >
<path style="stroke: none; stroke-width: 1; stroke-dasharray: none; stroke-linecap: butt; stroke-dashoffset: 0; stroke-linejoin: miter; stroke-miterlimit: 4; fill: rgb(173,178,181); fill-rule: nonzero; opacity: 1;"  transform=" translate(-154.15, -126.95)" d="M 154.154 174.319 a 47.368 47.368 0 1 0 -47.368 -47.368 A 47.421 47.421 0 0 0 154.154 174.319 Z m 0 -82.735 a 35.368 35.368 0 1 1 -35.368 35.367 A 35.407 35.407 0 0 1 154.154 91.584 Z" stroke-linecap="round" />
</g>
		<g transform="matrix(-0.4 0 0 0.4 0 0)"  >
<path style="stroke: none; stroke-width: 1; stroke-dasharray: none; stroke-linecap: butt; stroke-dashoffset: 0; stroke-linejoin: miter; stroke-miterlimit: 4; fill: rgb(173,178,181); fill-rule: nonzero; opacity: 1;"  transform=" translate(-256, -256)" d="M 426.482 216.649 v -83.3 a 42.819 42.819 0 0 0 -42.771 -42.771 H 371.326 V 87.381 A 42.82 42.82 0 0 0 328.554 44.61 H 52.771 A 42.819 42.819 0 0 0 10 87.381 V 272.443 a 42.82 42.82 0 0 0 42.771 42.772 H 65.157 v 3.192 a 42.82 42.82 0 0 0 42.771 42.772 h 133.22 c 11.892 60.46 65.293 106.211 129.187 106.211 c 72.6 0 131.665 -59.065 131.665 -131.665 A 131.832 131.832 0 0 0 426.482 216.649 Z M 383.711 102.574 a 30.806 30.806 0 0 1 30.771 30.771 v 78.337 a 131.006 131.006 0 0 0 -43.156 -7.61 v -101.5 Z M 52.771 56.61 H 328.554 a 30.806 30.806 0 0 1 30.772 30.771 V 204.53 a 130.788 130.788 0 0 0 -58.76 19.521 l -27.88 -17.91 a 26.9 26.9 0 0 0 -35.008 3.457 l -27.866 29.038 l -64.326 -39.907 A 27.126 27.126 0 0 0 114.6 200.37 L 22 261.7 V 87.381 A 30.806 30.806 0 0 1 52.771 56.61 Z m 193.565 161.3 a 14.971 14.971 0 0 1 19.547 -1.88 c 0.07 0.05 0.142 0.1 0.215 0.145 l 23.814 15.3 a 131.623 131.623 0 0 0 -47.171 71.746 H 164.473 Z m -224.13 58.05 l 99.222 -65.716 c 0.145 -0.095 0.285 -0.2 0.421 -0.3 a 15.092 15.092 0 0 1 17.311 -1.009 l 62.158 38.561 l -53.477 55.727 H 52.771 A 30.812 30.812 0 0 1 22.206 275.956 Z m 85.722 73.223 a 30.806 30.806 0 0 1 -30.771 -30.772 v -3.192 H 240.274 a 132.369 132.369 0 0 0 -0.922 33.964 Z M 370.335 455.39 A 119.665 119.665 0 1 1 490 335.725 A 119.8 119.8 0 0 1 370.335 455.39 Z" stroke-linecap="round" />
</g>
		<g transform="matrix(-0.4 0 0 0.4 -45.73 31.88)"  >
<path style="stroke: none; stroke-width: 1; stroke-dasharray: none; stroke-linecap: butt; stroke-dashoffset: 0; stroke-linejoin: miter; stroke-miterlimit: 4; fill: rgb(173,178,181); fill-rule: nonzero; opacity: 1;"  transform=" translate(-370.33, -335.72)" d="M 429.948 276.11 a 50.86 50.86 0 0 0 -75.918 67.435 l -56.45 56.449 a 6 6 0 0 0 8.486 8.485 l 56.446 -56.447 a 50.862 50.862 0 0 0 67.436 -75.921 Z m -8.485 63.452 a 38.849 38.849 0 1 1 0 -54.965 h 0 A 38.911 38.911 0 0 1 421.463 339.562 Z" stroke-linecap="round" />
</g>
		<g transform="matrix(-0.4 0 0 0.4 -61.75 28.63)"  >
<path style="stroke: none; stroke-width: 1; stroke-dasharray: none; stroke-linecap: butt; stroke-dashoffset: 0; stroke-linejoin: miter; stroke-miterlimit: 4; fill: rgb(173,178,181); fill-rule: nonzero; opacity: 1;"  transform=" translate(-410.36, -327.59)" d="M 412.654 318.628 a 12.852 12.852 0 0 1 -11.25 11.249 a 6 6 0 0 0 0.71 11.958 a 6.115 6.115 0 0 0 0.724 -0.044 a 24.824 24.824 0 0 0 21.73 -21.729 a 6 6 0 1 0 -11.914 -1.434 Z" stroke-linecap="round" />
</g>
</g>
</g>
</svg>