<?xml version="1.0"?>
<svg xmlns="http://www.w3.org/2000/svg" xmlns:xlink="http://www.w3.org/1999/xlink" xmlns:svgjs="http://svgjs.com/svgjs" version="1.1" width="512" height="512" x="0" y="0" viewBox="0 0 74 74" style="enable-background:new 0 0 512 512" xml:space="preserve" class=""><rect width="74" height="74" rx="20" ry="20" fill="#2698f1" shape="rounded"/><g transform="matrix(0.7,0,0,0.7,11.100064980983735,11.09987869262697)"><path xmlns="http://www.w3.org/2000/svg" d="m71 60h-68a1 1 0 0 1 -1-1v-44a1 1 0 0 1 1-1h68a1 1 0 0 1 1 1v44a1 1 0 0 1 -1 1zm-67-2h66v-42h-66z" fill="#ffffff" data-original="#000000" style="" class=""/><path xmlns="http://www.w3.org/2000/svg" d="m37 41.251a12.952 12.952 0 0 1 -8.425-3.123l-26.224-22.367a1 1 0 1 1 1.3-1.522l26.222 22.367a10.936 10.936 0 0 0 14.255 0l26.223-22.367a1 1 0 1 1 1.3 1.522l-26.225 22.367a12.957 12.957 0 0 1 -8.426 3.123z" fill="#ffffff" data-original="#000000" style="" class=""/><path xmlns="http://www.w3.org/2000/svg" d="m71 60a1 1 0 0 1 -.635-.228l-26.25-21.61a1 1 0 1 1 1.272-1.544l26.25 21.61a1 1 0 0 1 -.637 1.772z" fill="#ffffff" data-original="#000000" style="" class=""/><path xmlns="http://www.w3.org/2000/svg" d="m3 60a1 1 0 0 1 -.637-1.772l26.25-21.61a1 1 0 1 1 1.272 1.544l-26.249 21.61a1 1 0 0 1 -.636.228z" fill="#ffffff" data-original="#000000" style="" class=""/></g></svg>
