<?xml version="1.0" encoding="UTF-8" standalone="no"?>
<!DOCTYPE svg PUBLIC "-//W3C//DTD SVG 1.1//EN" "http://www.w3.org/Graphics/SVG/1.1/DTD/svg11.dtd">
<svg width="100%" height="100%" viewBox="0 0 3125 3125" version="1.1" xmlns="http://www.w3.org/2000/svg" fill="#FFF" xmlns:xlink="http://www.w3.org/1999/xlink" xml:space="preserve" xmlns:serif="http://www.serif.com/" style="fill-rule:evenodd;clip-rule:evenodd;stroke-linejoin:round;stroke-miterlimit:2;">
    <g transform="matrix(3.125,0,0,3.125,0,0)">
        <g id="Vazado">
            <g id="Camada1">
                <g>
                    <path d="M156.468,448.049C156.468,448.049 135.044,451.827 120.739,453.447C106.434,455.066 98.067,455.336 79.174,455.876C81.063,463.973 77.555,508.102 78.904,508.102C80.254,508.102 86.461,509.182 91.32,509.991C91.86,513.77 90.24,545.349 90.24,545.349C90.24,545.349 84.302,546.159 79.714,546.159C78.634,549.937 91.536,582.191 98.013,588.668C100.982,591.907 104.761,594.336 117.176,600.004C126.893,605.672 189.781,623.788 189.781,623.788C189.781,623.788 177.905,622.946 159.012,620.247C140.118,617.548 89.106,610.8 82.089,601.354C75.072,591.907 61.09,554.795 61.9,545.349C59.201,545.889 54.343,546.428 54.343,546.428C54.343,546.428 52.184,519.168 53.263,511.881C55.692,509.991 61.63,509.991 61.63,509.991C61.63,509.991 64.059,482.866 64.869,466.672C65.679,450.478 62.71,435.903 62.71,435.903C62.71,435.903 83.223,438.872 95.368,439.951C107.514,441.031 142.062,436.982 154.477,434.014C166.893,431.045 210.617,417.549 247.054,402.705C283.491,387.86 335.043,376.794 372.019,372.206C411.425,369.237 543.887,376.319 543.887,376.319L643.758,457.658C643.758,457.658 723.037,459.717 788.932,467.954C854.826,476.19 935.135,493.951 943.372,500C940.138,517.52 933.727,540.842 931.703,545.565C944.523,551.976 947.56,555.012 947.56,555.012L926.642,586.388L915.34,581.683C915.34,581.683 893.916,607.554 885.819,611.692C877.722,615.83 868.275,613.468 865.239,613.468C862.202,613.468 854.443,626.626 854.443,626.626C854.443,626.626 748.501,632.652 739.104,632.514C765.366,627.636 842.246,616.165 845.916,604.937C847.644,599.323 851.871,592.545 851.871,592.545C851.871,592.545 871.932,596.637 875.386,594.478C878.841,592.319 895.447,573.203 895.447,573.203L880.896,567.599L895.579,536.29L911.888,539.303C911.888,539.303 919.651,512.866 919.435,510.923C915.548,508.979 808.366,487.809 787.206,486.729C766.045,485.649 656.768,475.542 647.051,477.269C643.165,477.053 640.398,477.269 640.398,477.269C640.398,477.269 541.887,394.55 540.375,394.334C538.864,394.118 417.093,383.525 368.173,390.272C319.253,397.02 291.42,405.033 250.512,419.371C209.605,433.71 167.854,444.675 156.468,448.049Z"/>
                    <path d="M613.426,476.05L529.609,406.992C529.609,406.992 411.526,399.612 384.641,403.829C357.756,408.047 290.28,418.59 261.814,430.187C233.347,441.785 216.478,450.219 216.478,450.219C216.478,450.219 319.274,469.197 338.778,471.305C358.283,473.414 455.807,478.158 487.436,477.631C519.066,477.104 581.27,478.686 592.34,478.158C603.41,477.631 613.426,476.05 613.426,476.05Z"/>
                </g>
            </g>
            <g transform="matrix(1.78447,-2.00099e-17,2.00099e-17,1.78447,-195.117,-493.174)">
                <g transform="matrix(116.526,0,0,116.526,215.517,626.626)">
                    <path d="M0.348,-0.103C0.338,-0.087 0.326,-0.072 0.313,-0.059C0.299,-0.045 0.283,-0.033 0.266,-0.022C0.248,-0.011 0.228,-0.003 0.205,0.003C0.183,0.009 0.158,0.012 0.129,0.012C0.072,0.012 0.034,-0.01 0.015,-0.055C-0.004,-0.1 -0.002,-0.163 0.02,-0.244C0.032,-0.288 0.048,-0.327 0.069,-0.362C0.09,-0.397 0.113,-0.426 0.14,-0.45C0.167,-0.473 0.196,-0.491 0.227,-0.504C0.258,-0.517 0.291,-0.523 0.324,-0.523C0.347,-0.523 0.367,-0.518 0.382,-0.508C0.397,-0.499 0.407,-0.486 0.413,-0.471C0.42,-0.456 0.422,-0.439 0.421,-0.42C0.419,-0.401 0.413,-0.382 0.403,-0.364C0.394,-0.347 0.385,-0.334 0.376,-0.323C0.367,-0.312 0.358,-0.303 0.348,-0.297C0.34,-0.29 0.331,-0.286 0.324,-0.283C0.317,-0.28 0.311,-0.279 0.306,-0.279C0.287,-0.279 0.274,-0.287 0.269,-0.302C0.263,-0.317 0.264,-0.336 0.273,-0.357C0.282,-0.382 0.295,-0.401 0.312,-0.414C0.329,-0.427 0.347,-0.434 0.367,-0.434C0.373,-0.434 0.377,-0.434 0.38,-0.433C0.382,-0.438 0.383,-0.443 0.382,-0.448C0.381,-0.453 0.379,-0.458 0.376,-0.463C0.372,-0.468 0.366,-0.471 0.358,-0.474C0.35,-0.477 0.34,-0.479 0.327,-0.479C0.304,-0.479 0.282,-0.473 0.264,-0.462C0.245,-0.45 0.227,-0.434 0.212,-0.414C0.196,-0.395 0.182,-0.372 0.17,-0.347C0.157,-0.322 0.146,-0.295 0.137,-0.268C0.126,-0.237 0.118,-0.207 0.113,-0.18C0.108,-0.153 0.107,-0.129 0.11,-0.109C0.113,-0.089 0.121,-0.073 0.134,-0.062C0.147,-0.051 0.166,-0.045 0.192,-0.045C0.222,-0.045 0.249,-0.054 0.273,-0.07C0.297,-0.087 0.316,-0.108 0.331,-0.131L0.348,-0.103Z" style="fill-rule:nonzero;"/>
                </g>
                <g transform="matrix(116.526,0,0,116.526,259.331,626.626)">
                    <path d="M0.258,-0.39C0.284,-0.39 0.304,-0.381 0.317,-0.362C0.319,-0.367 0.321,-0.371 0.322,-0.375C0.323,-0.378 0.324,-0.381 0.325,-0.382L0.435,-0.382C0.433,-0.376 0.429,-0.366 0.423,-0.351C0.417,-0.336 0.41,-0.32 0.402,-0.301C0.394,-0.281 0.386,-0.262 0.377,-0.241L0.333,-0.133C0.327,-0.119 0.323,-0.11 0.322,-0.106C0.317,-0.093 0.317,-0.084 0.324,-0.079C0.331,-0.074 0.34,-0.072 0.351,-0.074C0.362,-0.076 0.375,-0.082 0.389,-0.092C0.402,-0.102 0.413,-0.116 0.422,-0.134L0.439,-0.106C0.432,-0.09 0.423,-0.075 0.411,-0.062C0.4,-0.048 0.387,-0.036 0.373,-0.026C0.358,-0.016 0.343,-0.008 0.327,-0.002C0.31,0.004 0.294,0.007 0.278,0.007C0.257,0.007 0.241,0.003 0.228,-0.006C0.215,-0.015 0.206,-0.028 0.203,-0.045C0.184,-0.029 0.164,-0.016 0.145,-0.007C0.125,0.002 0.106,0.007 0.088,0.007C0.065,0.007 0.047,0.002 0.033,-0.009C0.018,-0.019 0.008,-0.033 0.002,-0.051C-0.004,-0.069 -0.006,-0.09 -0.003,-0.115C-0.001,-0.139 0.006,-0.165 0.018,-0.192C0.047,-0.26 0.082,-0.31 0.125,-0.342C0.168,-0.374 0.212,-0.39 0.258,-0.39ZM0.3,-0.323C0.294,-0.332 0.284,-0.337 0.271,-0.337C0.258,-0.337 0.247,-0.335 0.235,-0.33C0.225,-0.325 0.214,-0.317 0.203,-0.306C0.192,-0.295 0.18,-0.28 0.169,-0.262C0.158,-0.244 0.146,-0.222 0.133,-0.196C0.123,-0.177 0.115,-0.159 0.11,-0.141C0.104,-0.125 0.101,-0.11 0.1,-0.097C0.099,-0.084 0.102,-0.074 0.107,-0.067C0.112,-0.06 0.12,-0.056 0.131,-0.056C0.142,-0.056 0.155,-0.059 0.168,-0.066C0.181,-0.073 0.195,-0.082 0.208,-0.094C0.21,-0.103 0.213,-0.111 0.217,-0.12L0.3,-0.323Z" style="fill-rule:nonzero;"/>
                </g>
                <g transform="matrix(116.526,0,0,116.526,308.505,626.626)">
                    <path d="M0.149,-0.463C0.168,-0.463 0.181,-0.456 0.187,-0.441C0.193,-0.426 0.192,-0.407 0.183,-0.386C0.177,-0.37 0.17,-0.357 0.161,-0.346L0.249,-0.346C0.247,-0.34 0.243,-0.331 0.238,-0.318C0.233,-0.305 0.227,-0.291 0.22,-0.274C0.213,-0.257 0.206,-0.24 0.199,-0.222L0.16,-0.13C0.155,-0.118 0.151,-0.11 0.15,-0.106C0.145,-0.093 0.145,-0.084 0.152,-0.079C0.159,-0.074 0.168,-0.072 0.18,-0.074C0.191,-0.076 0.204,-0.082 0.217,-0.092C0.23,-0.102 0.241,-0.116 0.25,-0.134L0.267,-0.106C0.26,-0.09 0.251,-0.075 0.239,-0.062C0.228,-0.048 0.215,-0.036 0.201,-0.026C0.186,-0.016 0.171,-0.008 0.155,-0.002C0.138,0.004 0.122,0.007 0.106,0.007C0.09,0.007 0.076,0.004 0.065,-0.001C0.053,-0.006 0.044,-0.014 0.039,-0.025C0.033,-0.036 0.03,-0.049 0.031,-0.065C0.032,-0.081 0.036,-0.099 0.045,-0.12L0.127,-0.318C0.115,-0.312 0.102,-0.309 0.089,-0.309C0.07,-0.309 0.058,-0.317 0.052,-0.332C0.046,-0.346 0.048,-0.365 0.057,-0.386C0.066,-0.411 0.079,-0.43 0.096,-0.443C0.112,-0.456 0.13,-0.463 0.149,-0.463Z" style="fill-rule:nonzero;"/>
                </g>
                <g transform="matrix(116.526,0,0,116.526,337.636,626.626)">
                    <path d="M0.258,-0.39C0.284,-0.39 0.304,-0.381 0.317,-0.362C0.319,-0.367 0.321,-0.371 0.322,-0.375C0.323,-0.378 0.324,-0.381 0.325,-0.382L0.435,-0.382C0.433,-0.376 0.429,-0.366 0.423,-0.351C0.417,-0.336 0.41,-0.32 0.402,-0.301C0.394,-0.281 0.386,-0.262 0.377,-0.241L0.333,-0.133C0.327,-0.119 0.323,-0.11 0.322,-0.106C0.317,-0.093 0.317,-0.084 0.324,-0.079C0.331,-0.074 0.34,-0.072 0.351,-0.074C0.362,-0.076 0.375,-0.082 0.389,-0.092C0.402,-0.102 0.413,-0.116 0.422,-0.134L0.439,-0.106C0.432,-0.09 0.423,-0.075 0.411,-0.062C0.4,-0.048 0.387,-0.036 0.373,-0.026C0.358,-0.016 0.343,-0.008 0.327,-0.002C0.31,0.004 0.294,0.007 0.278,0.007C0.257,0.007 0.241,0.003 0.228,-0.006C0.215,-0.015 0.206,-0.028 0.203,-0.045C0.184,-0.029 0.164,-0.016 0.145,-0.007C0.125,0.002 0.106,0.007 0.088,0.007C0.065,0.007 0.047,0.002 0.033,-0.009C0.018,-0.019 0.008,-0.033 0.002,-0.051C-0.004,-0.069 -0.006,-0.09 -0.003,-0.115C-0.001,-0.139 0.006,-0.165 0.018,-0.192C0.047,-0.26 0.082,-0.31 0.125,-0.342C0.168,-0.374 0.212,-0.39 0.258,-0.39ZM0.3,-0.323C0.294,-0.332 0.284,-0.337 0.271,-0.337C0.258,-0.337 0.247,-0.335 0.235,-0.33C0.225,-0.325 0.214,-0.317 0.203,-0.306C0.192,-0.295 0.18,-0.28 0.169,-0.262C0.158,-0.244 0.146,-0.222 0.133,-0.196C0.123,-0.177 0.115,-0.159 0.11,-0.141C0.104,-0.125 0.101,-0.11 0.1,-0.097C0.099,-0.084 0.102,-0.074 0.107,-0.067C0.112,-0.06 0.12,-0.056 0.131,-0.056C0.142,-0.056 0.155,-0.059 0.168,-0.066C0.181,-0.073 0.195,-0.082 0.208,-0.094C0.21,-0.103 0.213,-0.111 0.217,-0.12L0.3,-0.323Z" style="fill-rule:nonzero;"/>
                </g>
                <g transform="matrix(116.526,0,0,116.526,386.81,626.626)">
                    <path d="M0.09,-0.088C0.085,-0.074 0.084,-0.063 0.088,-0.055C0.092,-0.047 0.102,-0.043 0.117,-0.043L0.127,-0.043L0.107,-0C0.102,0.001 0.096,0.003 0.09,0.004C0.08,0.006 0.068,0.007 0.053,0.007C0.015,0.007 -0.009,-0.003 -0.018,-0.024C-0.028,-0.045 -0.024,-0.077 -0.006,-0.121L0.065,-0.294C0.071,-0.307 0.072,-0.318 0.068,-0.327C0.064,-0.335 0.054,-0.339 0.039,-0.339L0.029,-0.339L0.049,-0.382C0.054,-0.383 0.06,-0.385 0.066,-0.386C0.071,-0.387 0.077,-0.388 0.084,-0.389C0.09,-0.39 0.096,-0.39 0.103,-0.39C0.148,-0.39 0.173,-0.374 0.178,-0.343C0.194,-0.358 0.212,-0.369 0.231,-0.378C0.25,-0.386 0.27,-0.39 0.289,-0.39C0.322,-0.39 0.344,-0.379 0.357,-0.358C0.37,-0.337 0.367,-0.305 0.35,-0.263C0.347,-0.254 0.342,-0.243 0.336,-0.228C0.33,-0.213 0.324,-0.197 0.317,-0.181C0.31,-0.165 0.304,-0.15 0.299,-0.136C0.293,-0.122 0.289,-0.112 0.286,-0.106C0.281,-0.093 0.281,-0.084 0.288,-0.079C0.295,-0.074 0.304,-0.072 0.316,-0.074C0.327,-0.076 0.34,-0.082 0.353,-0.092C0.366,-0.102 0.377,-0.116 0.386,-0.134L0.403,-0.106C0.396,-0.09 0.387,-0.075 0.376,-0.062C0.364,-0.048 0.351,-0.036 0.337,-0.026C0.322,-0.016 0.307,-0.008 0.291,-0.002C0.274,0.004 0.258,0.007 0.242,0.007C0.226,0.007 0.212,0.004 0.201,-0.001C0.189,-0.006 0.18,-0.014 0.174,-0.025C0.168,-0.036 0.165,-0.049 0.166,-0.065C0.167,-0.081 0.171,-0.099 0.18,-0.12L0.245,-0.276C0.249,-0.286 0.249,-0.294 0.246,-0.3C0.242,-0.305 0.236,-0.308 0.228,-0.309C0.22,-0.309 0.211,-0.307 0.2,-0.303C0.189,-0.298 0.178,-0.291 0.168,-0.281L0.161,-0.261C0.157,-0.25 0.151,-0.236 0.144,-0.219C0.137,-0.202 0.13,-0.184 0.123,-0.167C0.116,-0.149 0.109,-0.133 0.102,-0.118C0.096,-0.103 0.092,-0.093 0.09,-0.088Z" style="fill-rule:nonzero;"/>
                </g>
                <g transform="matrix(116.526,0,0,116.526,431.789,626.626)">
                    <path d="M0.433,-0.382C0.428,-0.369 0.422,-0.355 0.415,-0.338C0.408,-0.321 0.401,-0.304 0.393,-0.284C0.385,-0.266 0.377,-0.246 0.369,-0.226C0.361,-0.205 0.353,-0.185 0.345,-0.166C0.326,-0.121 0.307,-0.073 0.287,-0.024C0.262,0.041 0.228,0.09 0.186,0.124C0.144,0.158 0.097,0.175 0.046,0.175C0.025,0.175 0.008,0.17 -0.005,0.16C-0.018,0.15 -0.026,0.137 -0.031,0.122C-0.036,0.107 -0.037,0.09 -0.034,0.071C-0.031,0.052 -0.025,0.034 -0.015,0.016C-0.006,0.001 0.005,-0.013 0.017,-0.024C0.003,-0.042 -0.004,-0.066 -0.004,-0.095C-0.004,-0.124 0.003,-0.156 0.018,-0.192C0.047,-0.26 0.083,-0.31 0.126,-0.342C0.169,-0.374 0.213,-0.39 0.259,-0.39C0.284,-0.39 0.303,-0.381 0.316,-0.364L0.323,-0.382L0.433,-0.382ZM0.133,-0.056C0.143,-0.056 0.154,-0.059 0.166,-0.065C0.177,-0.07 0.189,-0.078 0.201,-0.087L0.299,-0.325C0.292,-0.333 0.283,-0.337 0.271,-0.337C0.259,-0.337 0.248,-0.335 0.236,-0.33C0.226,-0.325 0.215,-0.317 0.203,-0.306C0.193,-0.295 0.181,-0.28 0.17,-0.262C0.159,-0.244 0.147,-0.222 0.134,-0.196C0.124,-0.177 0.116,-0.159 0.111,-0.141C0.105,-0.125 0.102,-0.11 0.101,-0.097C0.1,-0.084 0.102,-0.074 0.108,-0.067C0.113,-0.06 0.121,-0.056 0.133,-0.056ZM0.089,0.007C0.081,0.007 0.074,0.006 0.067,0.005C0.06,0.004 0.054,0.002 0.048,-0C0.039,0.007 0.03,0.016 0.022,0.029C0.014,0.042 0.008,0.058 0.003,0.077C-0,0.094 0.002,0.107 0.011,0.116C0.019,0.126 0.03,0.131 0.043,0.131C0.056,0.131 0.068,0.126 0.081,0.117C0.094,0.108 0.106,0.097 0.117,0.082C0.129,0.067 0.14,0.051 0.15,0.032C0.159,0.014 0.167,-0.004 0.174,-0.022C0.159,-0.013 0.145,-0.006 0.131,-0.001C0.116,0.004 0.102,0.007 0.089,0.007Z" style="fill-rule:nonzero;"/>
                </g>
                <g transform="matrix(116.526,0,0,116.526,477.933,626.626)">
                    <path d="M0.258,-0.39C0.284,-0.39 0.304,-0.381 0.317,-0.362C0.319,-0.367 0.321,-0.371 0.322,-0.375C0.323,-0.378 0.324,-0.381 0.325,-0.382L0.435,-0.382C0.433,-0.376 0.429,-0.366 0.423,-0.351C0.417,-0.336 0.41,-0.32 0.402,-0.301C0.394,-0.281 0.386,-0.262 0.377,-0.241L0.333,-0.133C0.327,-0.119 0.323,-0.11 0.322,-0.106C0.317,-0.093 0.317,-0.084 0.324,-0.079C0.331,-0.074 0.34,-0.072 0.351,-0.074C0.362,-0.076 0.375,-0.082 0.389,-0.092C0.402,-0.102 0.413,-0.116 0.422,-0.134L0.439,-0.106C0.432,-0.09 0.423,-0.075 0.411,-0.062C0.4,-0.048 0.387,-0.036 0.373,-0.026C0.358,-0.016 0.343,-0.008 0.327,-0.002C0.31,0.004 0.294,0.007 0.278,0.007C0.257,0.007 0.241,0.003 0.228,-0.006C0.215,-0.015 0.206,-0.028 0.203,-0.045C0.184,-0.029 0.164,-0.016 0.145,-0.007C0.125,0.002 0.106,0.007 0.088,0.007C0.065,0.007 0.047,0.002 0.033,-0.009C0.018,-0.019 0.008,-0.033 0.002,-0.051C-0.004,-0.069 -0.006,-0.09 -0.003,-0.115C-0.001,-0.139 0.006,-0.165 0.018,-0.192C0.047,-0.26 0.082,-0.31 0.125,-0.342C0.168,-0.374 0.212,-0.39 0.258,-0.39ZM0.3,-0.323C0.294,-0.332 0.284,-0.337 0.271,-0.337C0.258,-0.337 0.247,-0.335 0.235,-0.33C0.225,-0.325 0.214,-0.317 0.203,-0.306C0.192,-0.295 0.18,-0.28 0.169,-0.262C0.158,-0.244 0.146,-0.222 0.133,-0.196C0.123,-0.177 0.115,-0.159 0.11,-0.141C0.104,-0.125 0.101,-0.11 0.1,-0.097C0.099,-0.084 0.102,-0.074 0.107,-0.067C0.112,-0.06 0.12,-0.056 0.131,-0.056C0.142,-0.056 0.155,-0.059 0.168,-0.066C0.181,-0.073 0.195,-0.082 0.208,-0.094C0.21,-0.103 0.213,-0.111 0.217,-0.12L0.3,-0.323Z" style="fill-rule:nonzero;"/>
                </g>
            </g>
            <g transform="matrix(0.711101,0,0,0.711101,193.245,203.654)">
                <g transform="matrix(132.862,0,0,132.862,606.173,664.258)">
                    <path d="M0.332,-0.523C0.359,-0.523 0.383,-0.518 0.404,-0.507C0.424,-0.497 0.44,-0.482 0.451,-0.462C0.462,-0.441 0.467,-0.416 0.468,-0.385C0.468,-0.354 0.462,-0.319 0.449,-0.279C0.437,-0.24 0.422,-0.203 0.404,-0.168C0.386,-0.133 0.365,-0.102 0.34,-0.075C0.315,-0.048 0.286,-0.027 0.253,-0.012C0.22,0.004 0.183,0.012 0.141,0.012C0.112,0.012 0.087,0.007 0.066,-0.004C0.045,-0.015 0.029,-0.03 0.019,-0.051C0.008,-0.071 0.002,-0.096 0.003,-0.127C0.003,-0.158 0.01,-0.193 0.023,-0.233C0.036,-0.27 0.05,-0.306 0.067,-0.341C0.083,-0.376 0.103,-0.406 0.127,-0.434C0.15,-0.461 0.179,-0.482 0.212,-0.499C0.245,-0.515 0.285,-0.523 0.332,-0.523ZM0.328,-0.256C0.339,-0.288 0.348,-0.318 0.355,-0.345C0.362,-0.373 0.367,-0.398 0.368,-0.419C0.369,-0.44 0.366,-0.456 0.36,-0.468C0.353,-0.48 0.342,-0.486 0.325,-0.486C0.307,-0.486 0.289,-0.479 0.272,-0.466C0.255,-0.452 0.238,-0.434 0.223,-0.412C0.207,-0.391 0.192,-0.366 0.179,-0.339C0.166,-0.312 0.154,-0.284 0.145,-0.257C0.134,-0.226 0.125,-0.196 0.117,-0.169C0.11,-0.142 0.106,-0.118 0.105,-0.098C0.103,-0.077 0.106,-0.061 0.113,-0.05C0.12,-0.038 0.132,-0.032 0.149,-0.032C0.168,-0.032 0.187,-0.039 0.204,-0.052C0.222,-0.065 0.238,-0.083 0.254,-0.103C0.269,-0.125 0.282,-0.148 0.295,-0.175C0.308,-0.202 0.319,-0.229 0.328,-0.256Z" style="fill-rule:nonzero;"/>
                </g>
                <g transform="matrix(132.862,0,0,132.862,667.29,664.258)">
                    <path d="M0.09,-0.088C0.085,-0.074 0.084,-0.063 0.088,-0.055C0.092,-0.047 0.102,-0.043 0.117,-0.043L0.127,-0.043L0.107,-0C0.102,0.001 0.096,0.003 0.09,0.004C0.08,0.006 0.068,0.007 0.053,0.007C0.015,0.007 -0.009,-0.003 -0.018,-0.024C-0.028,-0.045 -0.024,-0.077 -0.006,-0.121L0.065,-0.294C0.071,-0.307 0.072,-0.318 0.068,-0.327C0.064,-0.335 0.054,-0.339 0.039,-0.339L0.029,-0.339L0.049,-0.382C0.054,-0.383 0.06,-0.385 0.066,-0.386C0.071,-0.387 0.077,-0.388 0.084,-0.389C0.09,-0.39 0.096,-0.39 0.103,-0.39C0.148,-0.39 0.173,-0.374 0.178,-0.343C0.194,-0.358 0.212,-0.369 0.231,-0.378C0.25,-0.386 0.27,-0.39 0.289,-0.39C0.322,-0.39 0.344,-0.379 0.357,-0.358C0.37,-0.337 0.367,-0.305 0.35,-0.263C0.347,-0.254 0.342,-0.243 0.336,-0.228C0.33,-0.213 0.324,-0.197 0.317,-0.181C0.31,-0.165 0.304,-0.15 0.299,-0.136C0.293,-0.122 0.289,-0.112 0.286,-0.106C0.281,-0.093 0.281,-0.084 0.288,-0.079C0.295,-0.074 0.304,-0.072 0.316,-0.074C0.327,-0.076 0.34,-0.082 0.353,-0.092C0.366,-0.102 0.377,-0.116 0.386,-0.134L0.403,-0.106C0.396,-0.09 0.387,-0.075 0.376,-0.062C0.364,-0.048 0.351,-0.036 0.337,-0.026C0.322,-0.016 0.307,-0.008 0.291,-0.002C0.274,0.004 0.258,0.007 0.242,0.007C0.226,0.007 0.212,0.004 0.201,-0.001C0.189,-0.006 0.18,-0.014 0.174,-0.025C0.168,-0.036 0.165,-0.049 0.166,-0.065C0.167,-0.081 0.171,-0.099 0.18,-0.12L0.245,-0.276C0.249,-0.286 0.249,-0.294 0.246,-0.3C0.242,-0.305 0.236,-0.308 0.228,-0.309C0.22,-0.309 0.211,-0.307 0.2,-0.303C0.189,-0.298 0.178,-0.291 0.168,-0.281L0.161,-0.261C0.157,-0.25 0.151,-0.236 0.144,-0.219C0.137,-0.202 0.13,-0.184 0.123,-0.167C0.116,-0.149 0.109,-0.133 0.102,-0.118C0.096,-0.103 0.092,-0.093 0.09,-0.088Z" style="fill-rule:nonzero;"/>
                </g>
                <g transform="matrix(132.862,0,0,132.862,718.574,664.258)">
                    <path d="M0.216,-0.106C0.209,-0.09 0.2,-0.075 0.189,-0.062C0.177,-0.048 0.164,-0.036 0.15,-0.026C0.135,-0.016 0.12,-0.008 0.103,-0.002C0.087,0.004 0.071,0.007 0.055,0.007C0.039,0.007 0.025,0.004 0.014,-0.001C0.002,-0.006 -0.007,-0.014 -0.013,-0.025C-0.019,-0.036 -0.022,-0.049 -0.021,-0.065C-0.02,-0.081 -0.016,-0.099 -0.007,-0.12C-0.005,-0.125 -0,-0.137 0.007,-0.154C0.014,-0.171 0.023,-0.191 0.032,-0.214L0.092,-0.361C0.101,-0.384 0.11,-0.403 0.117,-0.42C0.124,-0.437 0.128,-0.447 0.13,-0.452C0.136,-0.465 0.137,-0.476 0.133,-0.485C0.129,-0.493 0.119,-0.497 0.104,-0.497L0.094,-0.497L0.115,-0.54C0.12,-0.541 0.126,-0.542 0.132,-0.543C0.137,-0.544 0.143,-0.545 0.149,-0.546C0.155,-0.547 0.162,-0.547 0.169,-0.547C0.207,-0.547 0.231,-0.537 0.24,-0.516C0.249,-0.495 0.245,-0.463 0.226,-0.418C0.224,-0.413 0.221,-0.404 0.216,-0.393C0.211,-0.382 0.206,-0.368 0.2,-0.353C0.193,-0.337 0.186,-0.32 0.179,-0.302C0.171,-0.283 0.163,-0.265 0.156,-0.247C0.139,-0.204 0.12,-0.157 0.099,-0.106C0.094,-0.093 0.094,-0.083 0.101,-0.078C0.108,-0.073 0.117,-0.071 0.128,-0.074C0.139,-0.076 0.152,-0.082 0.165,-0.092C0.178,-0.102 0.19,-0.116 0.199,-0.134L0.216,-0.106Z" style="fill-rule:nonzero;"/>
                </g>
                <g transform="matrix(132.862,0,0,132.862,745.014,664.258)">
                    <path d="M0.215,-0.106C0.208,-0.09 0.199,-0.075 0.188,-0.062C0.176,-0.048 0.163,-0.036 0.149,-0.026C0.134,-0.016 0.119,-0.008 0.102,-0.002C0.086,0.004 0.07,0.007 0.054,0.007C0.021,0.007 -0.001,-0.004 -0.014,-0.025C-0.027,-0.046 -0.024,-0.078 -0.007,-0.12C-0.004,-0.128 0.002,-0.14 0.009,-0.157C0.016,-0.173 0.023,-0.19 0.03,-0.208C0.037,-0.226 0.044,-0.243 0.051,-0.259C0.057,-0.275 0.062,-0.287 0.065,-0.294C0.07,-0.307 0.071,-0.318 0.067,-0.327C0.063,-0.335 0.053,-0.339 0.038,-0.339L0.028,-0.339L0.049,-0.382C0.054,-0.383 0.06,-0.385 0.066,-0.386C0.071,-0.387 0.077,-0.388 0.084,-0.389C0.09,-0.39 0.096,-0.39 0.103,-0.39C0.141,-0.39 0.165,-0.38 0.174,-0.359C0.183,-0.338 0.179,-0.305 0.161,-0.261C0.157,-0.251 0.152,-0.237 0.145,-0.22C0.138,-0.203 0.13,-0.185 0.123,-0.168C0.115,-0.148 0.107,-0.127 0.098,-0.106C0.093,-0.093 0.093,-0.083 0.1,-0.078C0.107,-0.073 0.116,-0.071 0.128,-0.074C0.139,-0.076 0.152,-0.082 0.165,-0.092C0.178,-0.102 0.189,-0.116 0.198,-0.134L0.215,-0.106ZM0.257,-0.487C0.257,-0.47 0.251,-0.456 0.239,-0.444C0.227,-0.432 0.213,-0.426 0.196,-0.426C0.179,-0.426 0.164,-0.432 0.152,-0.444C0.14,-0.456 0.134,-0.47 0.134,-0.487C0.134,-0.504 0.14,-0.518 0.152,-0.53C0.164,-0.542 0.179,-0.548 0.196,-0.548C0.213,-0.548 0.227,-0.542 0.239,-0.53C0.251,-0.518 0.257,-0.504 0.257,-0.487Z" style="fill-rule:nonzero;"/>
                </g>
                <g transform="matrix(132.862,0,0,132.862,771.32,664.258)">
                    <path d="M0.09,-0.088C0.085,-0.074 0.084,-0.063 0.088,-0.055C0.092,-0.047 0.102,-0.043 0.117,-0.043L0.127,-0.043L0.107,-0C0.102,0.001 0.096,0.003 0.09,0.004C0.08,0.006 0.068,0.007 0.053,0.007C0.015,0.007 -0.009,-0.003 -0.018,-0.024C-0.028,-0.045 -0.024,-0.077 -0.006,-0.121L0.065,-0.294C0.071,-0.307 0.072,-0.318 0.068,-0.327C0.064,-0.335 0.054,-0.339 0.039,-0.339L0.029,-0.339L0.049,-0.382C0.054,-0.383 0.06,-0.385 0.066,-0.386C0.071,-0.387 0.077,-0.388 0.084,-0.389C0.09,-0.39 0.096,-0.39 0.103,-0.39C0.148,-0.39 0.173,-0.374 0.178,-0.343C0.194,-0.358 0.212,-0.369 0.231,-0.378C0.25,-0.386 0.27,-0.39 0.289,-0.39C0.322,-0.39 0.344,-0.379 0.357,-0.358C0.37,-0.337 0.367,-0.305 0.35,-0.263C0.347,-0.254 0.342,-0.243 0.336,-0.228C0.33,-0.213 0.324,-0.197 0.317,-0.181C0.31,-0.165 0.304,-0.15 0.299,-0.136C0.293,-0.122 0.289,-0.112 0.286,-0.106C0.281,-0.093 0.281,-0.084 0.288,-0.079C0.295,-0.074 0.304,-0.072 0.316,-0.074C0.327,-0.076 0.34,-0.082 0.353,-0.092C0.366,-0.102 0.377,-0.116 0.386,-0.134L0.403,-0.106C0.396,-0.09 0.387,-0.075 0.376,-0.062C0.364,-0.048 0.351,-0.036 0.337,-0.026C0.322,-0.016 0.307,-0.008 0.291,-0.002C0.274,0.004 0.258,0.007 0.242,0.007C0.226,0.007 0.212,0.004 0.201,-0.001C0.189,-0.006 0.18,-0.014 0.174,-0.025C0.168,-0.036 0.165,-0.049 0.166,-0.065C0.167,-0.081 0.171,-0.099 0.18,-0.12L0.245,-0.276C0.249,-0.286 0.249,-0.294 0.246,-0.3C0.242,-0.305 0.236,-0.308 0.228,-0.309C0.22,-0.309 0.211,-0.307 0.2,-0.303C0.189,-0.298 0.178,-0.291 0.168,-0.281L0.161,-0.261C0.157,-0.25 0.151,-0.236 0.144,-0.219C0.137,-0.202 0.13,-0.184 0.123,-0.167C0.116,-0.149 0.109,-0.133 0.102,-0.118C0.096,-0.103 0.092,-0.093 0.09,-0.088Z" style="fill-rule:nonzero;"/>
                </g>
                <g transform="matrix(132.862,0,0,132.862,822.605,664.258)">
                    <path d="M0.192,-0.049C0.206,-0.049 0.221,-0.051 0.235,-0.056C0.251,-0.061 0.265,-0.067 0.279,-0.075C0.292,-0.082 0.305,-0.091 0.316,-0.102C0.327,-0.112 0.337,-0.123 0.344,-0.134L0.361,-0.106C0.344,-0.071 0.316,-0.043 0.275,-0.023C0.234,-0.003 0.187,0.007 0.133,0.007C0.105,0.007 0.081,0.002 0.062,-0.009C0.042,-0.019 0.027,-0.033 0.016,-0.051C0.005,-0.069 -0,-0.09 -0.001,-0.115C-0.002,-0.139 0.003,-0.165 0.014,-0.192C0.039,-0.257 0.073,-0.306 0.116,-0.34C0.158,-0.373 0.205,-0.39 0.256,-0.39C0.283,-0.39 0.304,-0.383 0.318,-0.369C0.332,-0.354 0.34,-0.337 0.342,-0.317C0.343,-0.296 0.339,-0.275 0.329,-0.252C0.318,-0.229 0.302,-0.208 0.281,-0.19C0.251,-0.165 0.216,-0.153 0.177,-0.153L0.113,-0.153C0.104,-0.123 0.108,-0.098 0.123,-0.079C0.138,-0.059 0.161,-0.049 0.192,-0.049ZM0.231,-0.345C0.224,-0.342 0.217,-0.336 0.207,-0.327C0.199,-0.318 0.189,-0.306 0.18,-0.292C0.171,-0.278 0.161,-0.262 0.152,-0.245C0.142,-0.228 0.133,-0.21 0.126,-0.191L0.161,-0.19C0.176,-0.191 0.189,-0.196 0.2,-0.205C0.211,-0.214 0.221,-0.229 0.23,-0.248C0.238,-0.263 0.244,-0.277 0.249,-0.29C0.254,-0.303 0.256,-0.315 0.257,-0.324C0.258,-0.333 0.256,-0.34 0.252,-0.344C0.248,-0.349 0.241,-0.349 0.231,-0.345Z" style="fill-rule:nonzero;"/>
                </g>
            </g>
        </g>
    </g>
</svg>
